<?xml version="1.0" encoding="UTF-8" standalone="no"?>
<!DOCTYPE svg PUBLIC "-//W3C//DTD SVG 1.1//EN"
 "http://www.w3.org/Graphics/SVG/1.1/DTD/svg11.dtd">
<!-- Generated by graphviz version 14.1.1 (20251213.1925)
 -->
<!-- Pages: 1 -->
<svg width="630pt" height="276pt"
 viewBox="0.00 0.00 630.00 276.00" xmlns="http://www.w3.org/2000/svg" xmlns:xlink="http://www.w3.org/1999/xlink">
<g id="graph0" class="graph" transform="scale(1 1) rotate(0) translate(4 272.25)">
<polygon fill="white" stroke="none" points="-4,4 -4,-272.25 626,-272.25 626,4 -4,4"/>
<!-- q0 -->
<g id="node1" class="node">
<title>q0</title>
<ellipse fill="#ccffcc" stroke="black" cx="173.63" cy="-142" rx="20.63" ry="20.63"/>
<ellipse fill="none" stroke="black" cx="173.63" cy="-142" rx="24.63" ry="24.63"/>
<text xml:space="preserve" text-anchor="middle" x="173.63" y="-136.57" font-family="Arial" font-size="14.00">q0</text>
</g>
<!-- q1 -->
<g id="node2" class="node">
<title>q1</title>
<ellipse fill="white" stroke="black" cx="318.88" cy="-225" rx="20.63" ry="20.63"/>
<text xml:space="preserve" text-anchor="middle" x="318.88" y="-219.57" font-family="Arial" font-size="14.00">q1</text>
</g>
<!-- q0&#45;&gt;q1 -->
<g id="edge8" class="edge">
<title>q0&#45;&gt;q1</title>
<path fill="none" stroke="blue" d="M190.74,-159.94C212.66,-181.88 226.75,-189.03 289.07,-213.41"/>
<polygon fill="blue" stroke="blue" points="287.5,-216.55 298.08,-216.92 290.04,-210.03 287.5,-216.55"/>
<text xml:space="preserve" text-anchor="middle" x="248.25" y="-254.85" font-family="Times New Roman,serif" font-size="12.00" fill="blue">0</text>
</g>
<!-- q2 -->
<g id="node3" class="node">
<title>q2</title>
<ellipse fill="white" stroke="black" cx="601.38" cy="-142" rx="20.63" ry="20.63"/>
<text xml:space="preserve" text-anchor="middle" x="601.38" y="-136.57" font-family="Arial" font-size="14.00">q2</text>
</g>
<!-- q0&#45;&gt;q2 -->
<g id="edge9" class="edge">
<title>q0&#45;&gt;q2</title>
<path fill="none" stroke="red" d="M198.54,-140.21C445.53,-122.48 471.2,-121.35 569.2,-136.81"/>
<polygon fill="red" stroke="red" points="568.62,-140.26 579.04,-138.38 569.72,-133.35 568.62,-140.26"/>
<text xml:space="preserve" text-anchor="middle" x="389.5" y="-104.85" font-family="Times New Roman,serif" font-size="12.00" fill="red">1</text>
</g>
<!-- q1&#45;&gt;q0 -->
<g id="edge4" class="edge">
<title>q1&#45;&gt;q0</title>
<path fill="none" stroke="blue" d="M190.74,-160.22C212.66,-182.48 226.74,-189.6 288.97,-213.56"/>
<polygon fill="blue" stroke="blue" points="287.37,-216.7 297.96,-217.01 289.88,-210.16 287.37,-216.7"/>
<text xml:space="preserve" text-anchor="middle" x="248.25" y="-185.85" font-family="Times New Roman,serif" font-size="12.00" fill="blue">0</text>
</g>
<!-- q3 -->
<g id="node4" class="node">
<title>q3</title>
<ellipse fill="white" stroke="black" cx="460.13" cy="-219" rx="20.63" ry="20.63"/>
<text xml:space="preserve" text-anchor="middle" x="460.13" y="-213.57" font-family="Arial" font-size="14.00">q3</text>
</g>
<!-- q1&#45;&gt;q3 -->
<g id="edge5" class="edge">
<title>q1&#45;&gt;q3</title>
<path fill="none" stroke="red" d="M338.55,-231.91C381.46,-246.68 393.5,-247.44 430.99,-231.78"/>
<polygon fill="red" stroke="red" points="431.9,-235.2 439.71,-228.05 429.14,-228.77 431.9,-235.2"/>
<text xml:space="preserve" text-anchor="middle" x="389.5" y="-256.85" font-family="Times New Roman,serif" font-size="12.00" fill="red">1</text>
</g>
<!-- q2&#45;&gt;q0 -->
<g id="edge7" class="edge">
<title>q2&#45;&gt;q0</title>
<path fill="none" stroke="red" d="M196.78,-132.66C376.06,-60.47 392.27,-59.6 571.14,-130.05"/>
<polygon fill="red" stroke="red" points="569.75,-133.26 580.34,-133.68 572.32,-126.75 569.75,-133.26"/>
<text xml:space="preserve" text-anchor="middle" x="389.5" y="-2.85" font-family="Times New Roman,serif" font-size="12.00" fill="red">1</text>
</g>
<!-- q2&#45;&gt;q3 -->
<g id="edge6" class="edge">
<title>q2&#45;&gt;q3</title>
<path fill="none" stroke="blue" d="M479.77,-211.61C541.07,-188.49 558.6,-181.05 577.85,-164.51"/>
<polygon fill="blue" stroke="blue" points="580.17,-167.13 585.21,-157.81 575.46,-161.95 580.17,-167.13"/>
<text xml:space="preserve" text-anchor="middle" x="530.75" y="-185.85" font-family="Times New Roman,serif" font-size="12.00" fill="blue">0</text>
</g>
<!-- q3&#45;&gt;q1 -->
<g id="edge3" class="edge">
<title>q3&#45;&gt;q1</title>
<path fill="none" stroke="red" d="M339.6,-227.15C392.05,-232.52 409.55,-233.6 429.52,-228.78"/>
<polygon fill="red" stroke="red" points="430.25,-232.21 438.92,-226.13 428.35,-225.48 430.25,-232.21"/>
<text xml:space="preserve" text-anchor="middle" x="389.5" y="-187.85" font-family="Times New Roman,serif" font-size="12.00" fill="red">1</text>
</g>
<!-- q3&#45;&gt;q2 -->
<g id="edge2" class="edge">
<title>q3&#45;&gt;q2</title>
<path fill="none" stroke="blue" d="M479.81,-211.55C541.58,-188.14 558.89,-180.75 578.32,-164"/>
<polygon fill="blue" stroke="blue" points="580.43,-166.81 585.47,-157.49 575.72,-161.63 580.43,-166.81"/>
<text xml:space="preserve" text-anchor="middle" x="530.75" y="-254.85" font-family="Times New Roman,serif" font-size="12.00" fill="blue">0</text>
</g>
<!-- start -->
<g id="node5" class="node">
<title>start</title>
<text xml:space="preserve" text-anchor="middle" x="27" y="-136.57" font-family="Arial" font-size="14.00">start</text>
</g>
<!-- start&#45;&gt;q0 -->
<g id="edge1" class="edge">
<title>start&#45;&gt;q0</title>
<path fill="none" stroke="blue" stroke-width="2" d="M53.95,-138.99C73.42,-137.29 89.68,-137.67 137.45,-140.11"/>
<polygon fill="blue" stroke="blue" stroke-width="2" points="135.65,-143.52 145.82,-140.54 136.02,-136.53 135.65,-143.52"/>
</g>
</g>
</svg>
